<svg width="16" height="16" viewBox="0 0 16 16" fill="none" xmlns="http://www.w3.org/2000/svg">
<path d="M11.3303 12.3219H9.85211C9.7125 12.3219 9.5955 12.2747 9.50112 12.1802C9.40662 12.0857 9.35938 11.9686 9.35938 11.829C9.35938 11.6893 9.40662 11.5723 9.50112 11.478C9.5955 11.3836 9.7125 11.3364 9.85211 11.3364H11.3303V9.85824C11.3303 9.71863 11.3776 9.60163 11.472 9.50725C11.5665 9.41275 11.6836 9.36551 11.8232 9.36551C11.9629 9.36551 12.0799 9.41275 12.1742 9.50725C12.2686 9.60163 12.3158 9.71863 12.3158 9.85824V11.3364H13.794C13.9336 11.3364 14.0506 11.3837 14.145 11.4782C14.2395 11.5727 14.2867 11.6897 14.2867 11.8293C14.2867 11.9691 14.2395 12.086 14.145 12.1803C14.0506 12.2747 13.9336 12.3219 13.794 12.3219H12.3158V13.8001C12.3158 13.9397 12.2685 14.0567 12.174 14.1511C12.0795 14.2456 11.9625 14.2928 11.8229 14.2928C11.6832 14.2928 11.5662 14.2456 11.4719 14.1511C11.3775 14.0567 11.3303 13.9397 11.3303 13.8001V12.3219ZM3.48452 12.8146C3.15264 12.8146 2.87173 12.6997 2.64179 12.4697C2.41185 12.2398 2.29688 11.9589 2.29688 11.627V4.14763C2.29688 3.81575 2.41185 3.53484 2.64179 3.3049C2.87173 3.07495 3.15264 2.95998 3.48452 2.95998H4.39411V2.07553C4.39411 1.93242 4.44267 1.81241 4.53979 1.7155C4.63681 1.61871 4.75703 1.57031 4.90047 1.57031C5.04391 1.57031 5.16381 1.61871 5.26017 1.7155C5.35664 1.81241 5.40487 1.93242 5.40487 2.07553V2.95998H9.06883V2.06305C9.06883 1.92344 9.11608 1.80639 9.21057 1.71189C9.30496 1.61751 9.42201 1.57031 9.56172 1.57031C9.70144 1.57031 9.81844 1.61751 9.91271 1.71189C10.0071 1.80639 10.0543 1.92344 10.0543 2.06305V2.95998H10.9639C11.2958 2.95998 11.5767 3.07495 11.8066 3.3049C12.0366 3.53484 12.1515 3.81575 12.1515 4.14763V7.49575C12.1515 7.63525 12.1043 7.75224 12.0098 7.84674C11.9153 7.94113 11.7982 7.98832 11.6586 7.98832C11.5189 7.98832 11.4019 7.94113 11.3076 7.84674C11.2133 7.75224 11.1661 7.63525 11.1661 7.49575V6.77554H3.28234V11.627C3.28234 11.6776 3.30342 11.7239 3.34557 11.7659C3.38762 11.8081 3.43394 11.8292 3.48452 11.8292H7.48321C7.62282 11.8292 7.73982 11.8764 7.8342 11.9709C7.9287 12.0654 7.97595 12.1825 7.97595 12.3221C7.97595 12.4618 7.9287 12.5788 7.8342 12.6731C7.73982 12.7674 7.62282 12.8146 7.48321 12.8146H3.48452Z" fill="black"/>
</svg>
