<svg width="29" height="29" viewBox="0 0 29 29" fill="none" xmlns="http://www.w3.org/2000/svg">
<g filter="url(#filter0_d_1_7174)">
<path d="M14.6145 7.58827C14.5718 7.5988 14.3531 7.63567 14.1344 7.66727C13.0995 7.83582 11.5418 8.51002 10.747 9.13155C10.4163 9.38965 9.95217 9.80575 9.76546 10.0112C9.65877 10.1218 9.5094 10.2851 9.42939 10.3641C9.3547 10.4431 9.30669 10.5116 9.3227 10.5116C9.34404 10.5116 9.33337 10.5326 9.30136 10.5537C9.17333 10.638 8.64522 11.4702 8.38916 11.9916C7.75969 13.2768 7.49297 14.5304 7.58365 15.7524C7.64767 16.6689 7.66367 16.8006 7.69034 16.8849C7.70635 16.927 7.75969 17.1377 7.8077 17.3536C7.86105 17.5643 7.96774 17.9278 8.05309 18.1543C8.13844 18.386 8.19178 18.5704 8.17045 18.5704C8.14911 18.5704 8.15978 18.5914 8.19178 18.6125C8.26647 18.6546 8.53319 19.1919 8.53319 19.2867C8.53319 19.3236 8.5492 19.3604 8.57587 19.371C8.59721 19.3762 8.70923 19.5395 8.82125 19.7291C8.93861 19.9135 9.07198 20.1136 9.11465 20.1663C9.16266 20.219 9.24268 20.3138 9.29602 20.377C9.88282 21.0828 10.3789 21.5463 11.0084 21.9782C11.1898 22.0994 11.3605 22.2205 11.3871 22.2416C11.4192 22.2627 11.5258 22.3259 11.6272 22.3733C11.7286 22.4259 11.8512 22.4892 11.8939 22.5208C12.182 22.7104 13.2756 23.0896 13.969 23.2476C14.5398 23.374 16.5936 23.3688 17.1751 23.2424C19.965 22.6366 22.1041 20.8405 23.1284 18.2543C23.3684 17.6591 23.3951 17.2852 23.2244 17.0587C23.0163 16.7795 22.4242 16.4424 21.7841 16.2317L21.432 16.1211V15.4627V14.8043L21.7734 14.6937C22.4242 14.483 23.0483 14.1196 23.2297 13.8457C23.3844 13.6192 23.3524 13.2505 23.1337 12.6974C22.5522 11.2121 21.6934 10.0849 20.4291 9.13155C19.5009 8.43628 18.7701 8.08865 17.6285 7.78315C17.5111 7.75155 17.3191 7.69888 17.2017 7.66727C17.0044 7.60933 14.8066 7.54086 14.6145 7.58827ZM16.4656 8.50476C16.6043 8.53636 16.8923 8.58377 17.0951 8.62064C17.3031 8.65224 17.6872 8.75758 17.9486 8.85239C18.4073 9.02094 19.3089 9.43178 19.3622 9.50552C19.3782 9.52133 19.4582 9.574 19.5382 9.61613C20.045 9.86896 21.0159 10.8118 21.496 11.5123C21.8481 12.0285 22.2748 12.8765 22.3175 13.1557C22.3229 13.1926 22.3442 13.2505 22.3655 13.2821C22.4082 13.3558 22.2802 13.4717 22.0028 13.6034C21.7627 13.7245 21.1813 13.9089 21.1546 13.8773C21.1493 13.8668 21.0106 13.6192 20.8505 13.3348C20.6905 13.0451 20.5251 12.7501 20.4825 12.6764C20.4344 12.6026 20.2957 12.3709 20.1731 12.1602C19.3622 10.8013 18.2846 10.1007 16.7483 9.9269C15.9268 9.83736 14.3905 9.8953 13.841 10.0375C12.9448 10.2745 12.1767 10.738 11.6645 11.349C11.3285 11.7493 11.3071 11.781 11.0244 12.2866C10.939 12.4393 10.8484 12.5658 10.8164 12.5658C10.7843 12.5658 10.7683 12.5816 10.7897 12.5974C10.8057 12.6132 10.747 12.7448 10.6617 12.8871C10.5763 13.0345 10.507 13.1715 10.507 13.2031C10.507 13.2294 10.4696 13.2663 10.4269 13.2821C10.3843 13.3032 10.3629 13.3348 10.3789 13.3611C10.3949 13.3874 10.3789 13.4085 10.3523 13.4085C10.3202 13.4085 10.2989 13.4243 10.3042 13.4454C10.3256 13.5244 10.2296 13.7245 10.1762 13.7245C10.1442 13.7245 10.1282 13.7403 10.1442 13.7561C10.1655 13.7719 10.1229 13.9458 10.0535 14.1354C9.86682 14.6832 9.81347 14.9781 9.80814 15.4733C9.8028 15.9052 9.86682 16.3265 9.97884 16.611C10.0055 16.6794 10.0162 16.7532 10.0002 16.7795C9.98417 16.8006 10.0108 16.848 10.0535 16.8849C10.0962 16.9217 10.1335 16.9849 10.1335 17.0218C10.1335 17.1113 10.4056 17.6328 10.4803 17.6855C10.5123 17.7065 10.5123 17.7276 10.4856 17.7276C10.4589 17.7276 10.4803 17.775 10.5336 17.833C10.587 17.8909 10.6083 17.9383 10.5816 17.9383C10.555 17.9383 10.5603 17.9594 10.587 17.9804C10.6723 18.0384 10.9497 18.4808 10.9497 18.5546C10.9497 18.5914 10.9657 18.623 10.9817 18.623C11.0031 18.623 11.0617 18.7126 11.1204 18.8179C11.1791 18.9285 11.2484 19.0339 11.2805 19.0549C11.3071 19.076 11.3178 19.0971 11.2965 19.0971C11.2378 19.0971 11.5205 19.4184 11.9526 19.8398C12.3367 20.2085 12.9341 20.6246 13.0888 20.6246C13.1209 20.6246 13.1742 20.6456 13.2009 20.672C13.3076 20.772 14.0224 20.9353 14.6198 20.9933C15.0146 21.0354 15.5214 21.0459 16.0335 21.0249C17.1164 20.9775 17.1911 20.9669 17.7085 20.7931C17.9592 20.7141 18.1993 20.6351 18.242 20.6193C18.2846 20.6088 18.3327 20.5877 18.3487 20.5719C18.3647 20.5561 18.5354 20.4402 18.7327 20.3138C19.2182 20.0083 19.8156 19.3762 20.1357 18.8337C20.2797 18.5862 20.4398 18.3123 20.4931 18.228C20.5465 18.1385 20.7118 17.8382 20.8665 17.5591C21.1386 17.0587 21.24 16.9691 21.3733 17.1008C21.4 17.1272 21.5013 17.164 21.592 17.1746C21.7681 17.1956 22.1628 17.3747 22.3068 17.5011C22.3869 17.5749 22.3869 17.5959 22.2962 17.854C22.1735 18.2069 21.7467 19.0339 21.4907 19.4131C21.1706 19.8872 20.4291 20.672 20.0023 20.988C19.901 21.0617 19.805 21.1408 19.789 21.1566C19.741 21.2198 19.0475 21.6201 18.6794 21.8044C18.322 21.9835 17.6658 22.1942 17.1484 22.3048C17.0044 22.3364 16.7696 22.3838 16.6309 22.4154C16.3055 22.4839 14.9666 22.4839 14.6038 22.4101C13.4569 22.1837 13.1369 22.0836 12.4274 21.7359C11.8939 21.4726 11.8139 21.4252 11.4512 21.1566C10.2509 20.2717 9.38138 19.1234 8.91194 17.8066C8.40516 16.3845 8.3945 14.6094 8.88527 13.1978C9.37604 11.7915 10.3416 10.5221 11.5365 9.71621C11.7019 9.60033 11.8406 9.52133 11.8406 9.53713C11.8406 9.55293 11.8833 9.52133 11.9366 9.46865C12.0326 9.37384 12.5447 9.11048 12.6941 9.07888C12.7368 9.06835 12.7901 9.04728 12.8061 9.02094C12.8221 8.99987 12.8861 8.97354 12.9502 8.95774C13.0088 8.9472 13.1155 8.91033 13.1849 8.87346C13.2542 8.83659 13.3129 8.81025 13.3236 8.82079C13.3289 8.82606 13.4623 8.78919 13.6223 8.74705C13.7823 8.69964 13.9317 8.66804 13.953 8.67331C13.9797 8.67857 14.0704 8.65751 14.1504 8.6259C14.2358 8.58903 14.3638 8.5627 14.4438 8.55743C14.5238 8.55216 14.6465 8.53109 14.7212 8.51002C14.9132 8.45209 16.1562 8.44682 16.4656 8.50476ZM16.9083 12.2761C16.951 12.3024 17.031 12.334 17.0897 12.3393C17.2337 12.3656 17.8419 12.7132 18.0179 12.8713C18.1033 12.9503 18.3113 13.1188 18.4767 13.2452C18.6421 13.3716 18.7754 13.4928 18.7754 13.5191C18.7754 13.5455 18.8074 13.5665 18.8501 13.5665C18.8928 13.5665 18.9995 13.6245 19.0848 13.6982C19.1755 13.7719 19.2822 13.8299 19.3249 13.8299C19.3729 13.8299 19.4742 13.8562 19.5596 13.8931C19.6396 13.9247 19.7303 13.9458 19.757 13.9405C19.7836 13.9352 19.933 13.9721 20.0877 14.0195C20.2531 14.0669 20.4291 14.0932 20.5091 14.0722C20.8612 13.9826 21.0532 13.9826 21.1173 14.0616C21.1546 14.109 21.1759 14.1828 21.1546 14.2249C21.1386 14.2671 21.1493 14.3039 21.1813 14.3039C21.2133 14.3039 21.2186 14.325 21.2026 14.3566C21.1866 14.3829 21.1919 14.4093 21.2239 14.4093C21.2506 14.4093 21.272 14.4778 21.272 14.562C21.2666 14.7516 21.1919 14.778 20.6532 14.778C19.773 14.778 18.9728 14.5673 18.4553 14.1986C18.2473 14.0511 17.8579 13.7403 17.5538 13.477C17.063 13.0451 16.3589 12.8449 15.516 12.8976C14.9826 12.9292 14.7265 12.9871 14.4011 13.1346C14.0331 13.2979 13.729 13.5876 13.5103 13.9774L13.3076 14.3303L13.2916 15.2784C13.2702 16.1896 13.3289 16.7374 13.4516 16.8111C13.4729 16.8269 13.4943 16.8849 13.4943 16.9375C13.4943 16.9902 13.5156 17.0429 13.5369 17.0534C13.5583 17.0587 13.649 17.1588 13.7343 17.2694C13.8677 17.4484 14.3798 17.8277 14.5345 17.8646C15.26 18.0436 15.5747 18.0594 16.4816 17.9752C16.7056 17.9488 17.3458 17.6117 17.6018 17.3852C18.1033 16.9323 18.6687 16.5214 18.6687 16.6057C18.6687 16.632 18.6901 16.6215 18.7114 16.5846C18.7327 16.553 18.7861 16.5162 18.8288 16.5056C18.8714 16.4951 18.9408 16.4582 18.9781 16.4213C19.0368 16.3687 19.1542 16.3423 19.2875 16.3634C19.3089 16.3634 19.3409 16.3423 19.3622 16.3107C19.4049 16.237 19.7303 16.1896 20.4024 16.1633C21.2773 16.1264 21.3413 16.158 21.2186 16.5952C21.1279 16.9112 21.0959 16.9323 20.7865 16.9007C20.3758 16.8585 19.5543 17.0113 19.1755 17.2009C18.9995 17.2904 18.6474 17.5327 18.3913 17.7434C18.1353 17.9488 17.8739 18.1648 17.8045 18.2227C17.6285 18.3597 16.967 18.6546 16.7483 18.6968C16.647 18.7126 16.1668 18.7284 15.6814 18.7336C14.8599 18.7389 14.7745 18.7336 14.3798 18.602C13.6223 18.3491 13.0995 17.8856 12.7528 17.1482C12.5554 16.7374 12.4807 16.2686 12.4807 15.4627C12.4807 14.6252 12.5554 14.1881 12.7688 13.7509C13.0515 13.161 13.3822 12.8239 13.9744 12.5078C14.3211 12.3235 14.5772 12.2445 14.9773 12.2076C15.4307 12.1602 16.807 12.2076 16.9083 12.2761Z" fill="#2030BD"/>
</g>
<defs>
<filter id="filter0_d_1_7174" x="-1.31395" y="0" width="31.6279" height="31.6279" filterUnits="userSpaceOnUse" color-interpolation-filters="sRGB">
<feFlood flood-opacity="0" result="BackgroundImageFix"/>
<feColorMatrix in="SourceAlpha" type="matrix" values="0 0 0 0 0 0 0 0 0 0 0 0 0 0 0 0 0 0 127 0" result="hardAlpha"/>
<feOffset dy="1.31395"/>
<feGaussianBlur stdDeviation="0.656977"/>
<feComposite in2="hardAlpha" operator="out"/>
<feColorMatrix type="matrix" values="0 0 0 0 0 0 0 0 0 0 0 0 0 0 0 0 0 0 0.15 0"/>
<feBlend mode="normal" in2="BackgroundImageFix" result="effect1_dropShadow_1_7174"/>
<feBlend mode="normal" in="SourceGraphic" in2="effect1_dropShadow_1_7174" result="shape"/>
</filter>
</defs>
</svg>
