<svg width="36" height="36" viewBox="0 0 36 36" fill="none" xmlns="http://www.w3.org/2000/svg">
<path d="M0 13.1395C0 6.9455 0 3.84848 1.92424 1.92424C3.84848 0 6.9455 0 13.1395 0H22.3372C28.5312 0 31.6283 0 33.5525 1.92424C35.4767 3.84848 35.4767 6.9455 35.4767 13.1395V22.3372C35.4767 28.5312 35.4767 31.6283 33.5525 33.5525C31.6283 35.4767 28.5312 35.4767 22.3372 35.4767H13.1395C6.9455 35.4767 3.84848 35.4767 1.92424 33.5525C0 31.6283 0 28.5312 0 22.3372V13.1395Z" fill="white"/>
<path d="M10.5444 9.37887C8.72923 10.7849 8.18468 12.599 8.77461 15.1389C10.2268 20.9442 15.5816 25.9332 21.2994 26.8403C22.7515 27.067 23.4322 26.931 24.7029 26.0693C25.5651 25.4796 26.4727 24.4365 26.7449 23.7108C27.1534 22.577 27.0172 22.3048 25.4743 20.8989C23.5684 19.13 22.1616 18.9486 20.4826 20.2639C19.8472 20.7628 19.1212 21.171 18.8489 21.171C18.1682 21.171 14.2655 17.2705 14.2655 16.5902C14.2655 16.3181 14.674 15.5924 15.1731 14.9574C16.4438 13.3247 16.3076 11.9187 14.674 10.0592C13.0857 8.24501 12.1327 8.10895 10.5444 9.37887Z" fill="#2030BD"/>
</svg>
