<svg width="14" height="14" viewBox="0 0 14 14" fill="none" xmlns="http://www.w3.org/2000/svg">
<path d="M2.3608 11.2215C2.08423 11.2215 1.85014 11.1257 1.65852 10.9341C1.4669 10.7425 1.37109 10.5084 1.37109 10.2318V4.54652C1.37109 4.26995 1.4669 4.03585 1.65852 3.84423C1.85014 3.65262 2.08423 3.55681 2.3608 3.55681H4.65598V2.63033C4.65598 2.35376 4.75179 2.11967 4.9434 1.92805C5.13502 1.73643 5.36912 1.64062 5.64569 1.64062H7.49863C7.7752 1.64062 8.0093 1.73643 8.20091 1.92805C8.39253 2.11967 8.48834 2.35376 8.48834 2.63033V3.55681H10.7835C11.0601 3.55681 11.2942 3.65262 11.4858 3.84423C11.6774 4.03585 11.7732 4.26995 11.7732 4.54652V10.2318C11.7732 10.5084 11.6774 10.7425 11.4858 10.9341C11.2942 11.1257 11.0601 11.2215 10.7835 11.2215H2.3608ZM5.4772 3.55681H7.66712V2.63033C7.66712 2.58818 7.64956 2.54958 7.61443 2.51454C7.57939 2.47941 7.54079 2.46185 7.49863 2.46185H5.64569C5.60353 2.46185 5.56493 2.47941 5.52989 2.51454C5.49476 2.54958 5.4772 2.58818 5.4772 2.63033V3.55681Z" fill="#6D6D6D"/>
</svg>
