<svg width="29" height="29" viewBox="0 0 29 29" fill="none" xmlns="http://www.w3.org/2000/svg">
<g filter="url(#filter0_d_1_7169)">
<path d="M13.694 5.95584C12.1527 6.15607 10.7414 6.74676 9.50703 7.70119C9.11669 8.00488 8.45279 8.65897 8.12917 9.05943C7.20838 10.2007 6.59785 11.549 6.33763 13.0173C6.24421 13.5379 6.20751 14.7894 6.26757 15.36C6.43771 16.9452 7.04157 18.4403 8.03242 19.7217C8.33602 20.1122 8.98992 20.7763 9.39026 21.1C10.8649 22.2914 12.7699 22.9922 14.538 22.9922H14.9451V19.655V16.3178H14.0276H13.1101V15.2666V14.2154H14.0276H14.9451V13.2876C14.9451 12.0495 15.0018 11.6825 15.2787 11.1385C15.5389 10.6279 15.9826 10.2308 16.5264 10.0272C17.0235 9.84033 17.4072 9.80362 18.3647 9.84367C18.765 9.86369 19.1454 9.88705 19.2054 9.89706L19.3155 9.91709V10.8448V11.7726L18.5582 11.7859C17.7575 11.8026 17.6341 11.8226 17.4139 11.9795C17.3605 12.0162 17.2771 12.133 17.2237 12.2398L17.1303 12.43L17.1203 13.321L17.1069 14.2154H18.1712H19.2321L19.0987 15.2666L18.9652 16.3178H18.0411H17.1136V19.5015V22.6885L17.2904 22.6384C18.1812 22.3748 19.2454 21.8208 20.0495 21.1968C20.4398 20.8931 21.1037 20.239 21.4273 19.8385C22.3481 18.6972 22.9486 17.379 23.2089 15.9173C23.3256 15.2633 23.3557 14.0952 23.2723 13.4145C22.9687 10.9082 21.5808 8.67899 19.4656 7.28738C18.368 6.56655 17.147 6.11937 15.8458 5.95584C15.3387 5.89577 14.1744 5.89577 13.694 5.95584Z" fill="#2030BD"/>
</g>
<defs>
<filter id="filter0_d_1_7169" x="-1.31395" y="0" width="31.5351" height="31.5346" filterUnits="userSpaceOnUse" color-interpolation-filters="sRGB">
<feFlood flood-opacity="0" result="BackgroundImageFix"/>
<feColorMatrix in="SourceAlpha" type="matrix" values="0 0 0 0 0 0 0 0 0 0 0 0 0 0 0 0 0 0 127 0" result="hardAlpha"/>
<feOffset dy="1.31395"/>
<feGaussianBlur stdDeviation="0.656977"/>
<feComposite in2="hardAlpha" operator="out"/>
<feColorMatrix type="matrix" values="0 0 0 0 0 0 0 0 0 0 0 0 0 0 0 0 0 0 0.15 0"/>
<feBlend mode="normal" in2="BackgroundImageFix" result="effect1_dropShadow_1_7169"/>
<feBlend mode="normal" in="SourceGraphic" in2="effect1_dropShadow_1_7169" result="shape"/>
</filter>
</defs>
</svg>
