<svg width="29" height="29" viewBox="0 0 29 29" fill="none" xmlns="http://www.w3.org/2000/svg">
<g filter="url(#filter0_d_1_7162)">
<path d="M9.59804 6.59895C8.14684 6.81306 7.0169 7.84301 6.64764 9.27904L6.56641 9.6039V14.4583V19.3127L6.64764 19.6376C6.97998 20.9334 7.91052 21.8858 9.19554 22.2402L9.55742 22.3398H14.4317H19.3059L19.6309 22.2586C20.9565 21.919 21.9129 20.9629 22.2526 19.6376L22.3338 19.3127V14.4583V9.6039L22.2526 9.27904C21.9166 7.96484 20.9713 7.01241 19.6493 6.66171L19.3428 6.58049L14.5794 6.57311C11.9576 6.56942 9.7162 6.58049 9.59804 6.59895ZM19.989 8.20479C20.3731 8.31923 20.7276 8.79544 20.7276 9.19413C20.7276 9.76263 20.2328 10.2499 19.6604 10.2499C18.6375 10.2462 18.2203 8.90619 19.0659 8.34507C19.3724 8.14203 19.6419 8.10142 19.989 8.20479ZM15.3179 9.45623C16.4995 9.66296 17.6405 10.3348 18.3864 11.2614C18.9477 11.9554 19.2838 12.6901 19.4573 13.5908C19.5459 14.0449 19.5459 14.8755 19.4536 15.3443C19.0548 17.4559 17.4485 19.0617 15.3364 19.4604C14.8674 19.5527 14.0366 19.5527 13.5824 19.4641C12.1976 19.1983 11.0972 18.4932 10.2812 17.3451C9.40972 16.1269 9.14385 14.4879 9.57958 13.0075C9.95991 11.7192 10.9089 10.5822 12.1201 9.95829C13.1429 9.43408 14.2138 9.26427 15.3179 9.45623Z" fill="#2030BD"/>
<path d="M13.9409 11.0978C12.5879 11.3129 11.5063 12.2767 11.153 13.5889C11.084 13.8384 11.0625 14.0449 11.0625 14.4536C11.0625 15.0689 11.1487 15.4647 11.3771 15.9207C11.8381 16.8371 12.5879 17.4567 13.5617 17.732C14.0357 17.8654 14.8371 17.8654 15.3111 17.732C16.5047 17.3964 17.3837 16.5187 17.7198 15.3313C17.8534 14.8538 17.8534 14.0578 17.7198 13.5803C17.3061 12.1261 16.091 11.1538 14.5915 11.0806C14.3761 11.0677 14.0831 11.0763 13.9409 11.0978Z" fill="#2030BD"/>
</g>
<defs>
<filter id="filter0_d_1_7162" x="-1.31395" y="0" width="31.5351" height="31.5346" filterUnits="userSpaceOnUse" color-interpolation-filters="sRGB">
<feFlood flood-opacity="0" result="BackgroundImageFix"/>
<feColorMatrix in="SourceAlpha" type="matrix" values="0 0 0 0 0 0 0 0 0 0 0 0 0 0 0 0 0 0 127 0" result="hardAlpha"/>
<feOffset dy="1.31395"/>
<feGaussianBlur stdDeviation="0.656977"/>
<feComposite in2="hardAlpha" operator="out"/>
<feColorMatrix type="matrix" values="0 0 0 0 0 0 0 0 0 0 0 0 0 0 0 0 0 0 0.15 0"/>
<feBlend mode="normal" in2="BackgroundImageFix" result="effect1_dropShadow_1_7162"/>
<feBlend mode="normal" in="SourceGraphic" in2="effect1_dropShadow_1_7162" result="shape"/>
</filter>
</defs>
</svg>
