<svg width="29" height="29" viewBox="0 0 29 29" fill="none" xmlns="http://www.w3.org/2000/svg">
<g filter="url(#filter0_d_1_7155)">
<g clip-path="url(#clip0_1_7155)">
<path d="M13.2792 5.30003C11.6193 5.5156 10.0995 6.15154 8.77019 7.17909C8.34982 7.50603 7.63485 8.21023 7.28634 8.64137C6.29472 9.87013 5.63723 11.3216 5.35699 12.9025C5.25639 13.463 5.21687 14.8103 5.28154 15.4247C5.57615 18.1768 7.09592 20.6522 9.43486 22.1792C10.5989 22.9373 11.9103 23.4151 13.3331 23.5912C13.8792 23.6595 15.0289 23.6559 15.5966 23.5876C19.7643 23.0702 23.0733 19.7612 23.5907 15.5935C23.6625 15.0115 23.6625 13.8761 23.5907 13.2941C23.2601 10.621 21.7619 8.2246 19.4948 6.73357C18.3128 5.95752 16.9978 5.47608 15.5966 5.30003C15.0505 5.23536 13.7966 5.23536 13.2792 5.30003ZM11.1666 9.27371C11.4504 9.3815 11.7163 9.64378 11.8241 9.9348C11.975 10.3444 11.8708 10.8366 11.5654 11.1276C11.3498 11.336 11.0876 11.4366 10.7391 11.4546C10.3618 11.4725 10.1175 11.4079 9.86241 11.2138C9.15821 10.6821 9.34145 9.55755 10.1786 9.26653C10.4516 9.17311 10.8971 9.17671 11.1666 9.27371ZM17.9104 12.342C18.3236 12.4282 18.7295 12.651 19.0313 12.9528C19.2469 13.1684 19.3224 13.2797 19.4697 13.5851C19.8146 14.2965 19.8361 14.5157 19.8361 17.0917V19.1504H18.7439H17.6481L17.6337 17.1277C17.6194 14.9324 17.6158 14.9001 17.411 14.5193C17.2062 14.1456 16.89 13.9911 16.3906 14.0199C15.9379 14.0486 15.5822 14.2929 15.3559 14.7312L15.2553 14.9288L15.2445 17.0378L15.2337 19.1504H14.1415H13.0457V15.7911V12.4318H14.1415H15.2373V12.8989C15.2373 13.154 15.2481 13.366 15.266 13.366C15.2804 13.366 15.3451 13.2833 15.4134 13.1827C15.672 12.8055 16.1571 12.4713 16.6385 12.3456C16.8972 12.2773 17.5942 12.2737 17.9104 12.342ZM11.7522 15.7911V19.1504H10.6564H9.56061V15.7911V12.4318H10.6564H11.7522V15.7911Z" fill="#2030BD"/>
</g>
</g>
<defs>
<filter id="filter0_d_1_7155" x="-1.31395" y="0" width="31.5351" height="31.5346" filterUnits="userSpaceOnUse" color-interpolation-filters="sRGB">
<feFlood flood-opacity="0" result="BackgroundImageFix"/>
<feColorMatrix in="SourceAlpha" type="matrix" values="0 0 0 0 0 0 0 0 0 0 0 0 0 0 0 0 0 0 127 0" result="hardAlpha"/>
<feOffset dy="1.31395"/>
<feGaussianBlur stdDeviation="0.656977"/>
<feComposite in2="hardAlpha" operator="out"/>
<feColorMatrix type="matrix" values="0 0 0 0 0 0 0 0 0 0 0 0 0 0 0 0 0 0 0.15 0"/>
<feBlend mode="normal" in2="BackgroundImageFix" result="effect1_dropShadow_1_7155"/>
<feBlend mode="normal" in="SourceGraphic" in2="effect1_dropShadow_1_7155" result="shape"/>
</filter>
<clipPath id="clip0_1_7155">
<rect width="18.3953" height="18.3953" fill="white" transform="translate(5.25 5.25)"/>
</clipPath>
</defs>
</svg>
