<svg width="36" height="36" viewBox="0 0 36 36" fill="none" xmlns="http://www.w3.org/2000/svg">
<path d="M0 13.1395C0 6.9455 0 3.84848 1.92424 1.92424C3.84848 0 6.9455 0 13.1395 0H22.3372C28.5312 0 31.6283 0 33.5525 1.92424C35.4767 3.84848 35.4767 6.9455 35.4767 13.1395V22.3372C35.4767 28.5312 35.4767 31.6283 33.5525 33.5525C31.6283 35.4767 28.5312 35.4767 22.3372 35.4767H13.1395C6.9455 35.4767 3.84848 35.4767 1.92424 33.5525C0 31.6283 0 28.5312 0 22.3372V13.1395Z" fill="white"/>
<path d="M13.536 10.476C8.71816 13.5419 8.54297 13.8721 8.54297 19.4379C8.54297 24.0603 8.58677 24.2018 9.81312 25.5696C10.6231 26.4419 11.7596 26.9375 12.9499 26.9375H17.7406H22.5314C23.7217 26.9375 24.8582 26.4419 25.6682 25.5696C26.8945 24.2018 26.9383 24.0603 26.9383 19.3907C26.9383 14.7211 26.8945 14.5324 25.6682 13.3532C23.7848 11.4194 19.0108 8.54215 17.7406 8.54215C17.0837 8.54215 15.2441 9.39117 13.536 10.476ZM21.1569 12.7872C22.6461 13.8249 23.8724 14.7211 23.8724 14.8626C23.8724 15.2399 18.31 18.919 17.7406 18.919C17.1713 18.919 11.6089 15.2399 11.6089 14.8626C11.6089 14.3909 17.0399 10.9005 17.7406 10.9005C18.1348 10.9005 19.7116 11.7495 21.1569 12.7872Z" fill="#2030BD"/>
</svg>
