<svg width="36" height="36" viewBox="0 0 36 36" fill="none" xmlns="http://www.w3.org/2000/svg">
<path d="M0 13.1395C0 6.9455 0 3.84848 1.92424 1.92424C3.84848 0 6.9455 0 13.1395 0H22.3372C28.5312 0 31.6283 0 33.5525 1.92424C35.4767 3.84848 35.4767 6.9455 35.4767 13.1395V22.3372C35.4767 28.5312 35.4767 31.6283 33.5525 33.5525C31.6283 35.4767 28.5312 35.4767 22.3372 35.4767H13.1395C6.9455 35.4767 3.84848 35.4767 1.92424 33.5525C0 31.6283 0 28.5312 0 22.3372V13.1395Z" fill="white"/>
<path d="M15.424 8.67382C12.8485 9.21603 10.8152 10.6168 9.59521 12.8308C8.60115 14.593 8.51078 15.2708 8.55597 19.4278C8.60115 21.9581 8.73671 24.4433 8.87226 24.8951C9.36929 26.3862 11.0411 26.838 15.9662 26.9284C20.2136 26.9736 20.8462 26.8832 22.6988 25.8892C25.5906 24.2625 26.9009 21.7322 26.9009 17.7559C26.9009 13.9152 25.5454 11.2042 22.9247 9.80343C20.8462 8.67382 17.7736 8.22197 15.424 8.67382ZM20.6655 16.8522C20.6655 17.3493 19.9877 17.5752 17.9996 17.6656C15.3337 17.8011 14.204 17.3493 14.7914 16.4004C15.2885 15.5871 20.6655 15.9937 20.6655 16.8522ZM17.9544 20.467C17.9544 21.2803 15.6048 21.687 14.927 21.0092C14.1589 20.2411 15.0174 19.5181 16.5085 19.6537C17.4122 19.7441 17.9544 20.0152 17.9544 20.467Z" fill="#2030BD"/>
</svg>
