<svg width="14" height="14" viewBox="0 0 14 14" fill="none" xmlns="http://www.w3.org/2000/svg">
<path d="M2.6091 11.2567C2.37816 11.2567 2.1818 11.1758 2.02001 11.014C1.85823 10.8522 1.77734 10.6558 1.77734 10.4249V4.69733C1.77734 4.46647 1.85823 4.27015 2.02001 4.10837C2.1818 3.94659 2.37816 3.8657 2.6091 3.8657H3.96727V2.5074C3.96727 2.27655 4.04816 2.08023 4.20994 1.91845C4.37172 1.75667 4.56808 1.67578 4.79903 1.67578H8.33657C8.56752 1.67578 8.76388 1.75667 8.92566 1.91845C9.08744 2.08023 9.16833 2.27655 9.16833 2.5074V6.05563H10.5265C10.7574 6.05563 10.9538 6.13652 11.1156 6.2983C11.2774 6.46008 11.3583 6.65639 11.3583 6.88725V10.4249C11.3583 10.6558 11.2774 10.8522 11.1156 11.014C10.9538 11.1758 10.7574 11.2567 10.5265 11.2567H7.25215V9.06677H5.88345V11.2567H2.6091ZM2.59856 10.4355H3.96727V9.06677H2.59856V10.4355ZM2.59856 8.24555H3.96727V6.87685H2.59856V8.24555ZM2.59856 6.05563H3.96727V4.68692H2.59856V6.05563ZM4.78849 8.24555H6.15719V6.87685H4.78849V8.24555ZM4.78849 6.05563H6.15719V4.68692H4.78849V6.05563ZM4.78849 3.8657H6.15719V2.497H4.78849V3.8657ZM6.97841 8.24555H8.34711V6.87685H6.97841V8.24555ZM6.97841 6.05563H8.34711V4.68692H6.97841V6.05563ZM6.97841 3.8657H8.34711V2.497H6.97841V3.8657ZM9.16833 10.4355H10.537V9.06677H9.16833V10.4355ZM9.16833 8.24555H10.537V6.87685H9.16833V8.24555Z" fill="#6D6D6D"/>
</svg>
