<svg width="29" height="29" viewBox="0 0 29 29" fill="none" xmlns="http://www.w3.org/2000/svg">
<path d="M14.1667 28.3333C12.2306 28.3333 10.4007 27.9615 8.67708 27.2177C6.95347 26.474 5.44826 25.4587 4.16146 24.1719C2.87465 22.8851 1.85938 21.3799 1.11563 19.6562C0.371875 17.9326 0 16.1028 0 14.1667C0 12.2069 0.383681 10.3653 1.15104 8.64167C1.9184 6.91806 2.95729 5.41875 4.26771 4.14375C5.57812 2.86875 7.10694 1.85938 8.85417 1.11563C10.6014 0.371875 12.4667 0 14.45 0C16.3389 0 18.1215 0.324653 19.7979 0.973958C21.4743 1.62326 22.9441 2.52049 24.2073 3.66562C25.4705 4.81076 26.474 6.1684 27.2177 7.73854C27.9615 9.30868 28.3333 11.0028 28.3333 12.8208C28.3333 15.5361 27.5069 17.6198 25.8542 19.0719C24.2014 20.524 22.1944 21.25 19.8333 21.25H17.2125C17 21.25 16.8524 21.309 16.7698 21.4271C16.6872 21.5451 16.6458 21.675 16.6458 21.8167C16.6458 22.1 16.8229 22.5073 17.1771 23.0385C17.5312 23.5698 17.7083 24.1778 17.7083 24.8625C17.7083 26.0431 17.3837 26.9167 16.7344 27.4833C16.0851 28.05 15.2292 28.3333 14.1667 28.3333ZM7.89792 14.9812C8.29931 14.5799 8.5 14.0722 8.5 13.4583C8.5 12.8444 8.29931 12.3368 7.89792 11.9354C7.49653 11.534 6.98889 11.3333 6.375 11.3333C5.76111 11.3333 5.25347 11.534 4.85208 11.9354C4.45069 12.3368 4.25 12.8444 4.25 13.4583C4.25 14.0722 4.45069 14.5799 4.85208 14.9812C5.25347 15.3826 5.76111 15.5833 6.375 15.5833C6.98889 15.5833 7.49653 15.3826 7.89792 14.9812ZM12.1479 9.31458C12.5493 8.91319 12.75 8.40556 12.75 7.79167C12.75 7.17778 12.5493 6.67014 12.1479 6.26875C11.7465 5.86736 11.2389 5.66667 10.625 5.66667C10.0111 5.66667 9.50347 5.86736 9.10208 6.26875C8.70069 6.67014 8.5 7.17778 8.5 7.79167C8.5 8.40556 8.70069 8.91319 9.10208 9.31458C9.50347 9.71597 10.0111 9.91667 10.625 9.91667C11.2389 9.91667 11.7465 9.71597 12.1479 9.31458ZM19.2313 9.31458C19.6326 8.91319 19.8333 8.40556 19.8333 7.79167C19.8333 7.17778 19.6326 6.67014 19.2313 6.26875C18.8299 5.86736 18.3222 5.66667 17.7083 5.66667C17.0944 5.66667 16.5868 5.86736 16.1854 6.26875C15.784 6.67014 15.5833 7.17778 15.5833 7.79167C15.5833 8.40556 15.784 8.91319 16.1854 9.31458C16.5868 9.71597 17.0944 9.91667 17.7083 9.91667C18.3222 9.91667 18.8299 9.71597 19.2313 9.31458ZM23.4813 14.9812C23.8826 14.5799 24.0833 14.0722 24.0833 13.4583C24.0833 12.8444 23.8826 12.3368 23.4813 11.9354C23.0799 11.534 22.5722 11.3333 21.9583 11.3333C21.3444 11.3333 20.8368 11.534 20.4354 11.9354C20.034 12.3368 19.8333 12.8444 19.8333 13.4583C19.8333 14.0722 20.034 14.5799 20.4354 14.9812C20.8368 15.3826 21.3444 15.5833 21.9583 15.5833C22.5722 15.5833 23.0799 15.3826 23.4813 14.9812Z" fill="#BBBBBB"/>
</svg>
