<svg width="26" height="29" viewBox="0 0 26 29" fill="none" xmlns="http://www.w3.org/2000/svg">
<path d="M11.7657 13.7541L0.107422 26.4072C0.108517 26.4094 0.108517 26.4128 0.109612 26.415C0.46767 27.7889 1.69405 28.8 3.15037 28.8C3.7329 28.8 4.2793 28.6388 4.74795 28.3566L4.78518 28.3342L17.9074 20.5912L11.7657 13.7541Z" fill="#EA4335"/>
<path d="M23.56 11.597L23.549 11.5891L17.8836 8.23104L11.501 14.0391L17.9066 20.5874L23.5414 17.2629C24.5291 16.7164 25.2003 15.6516 25.2003 14.4243C25.2003 13.2038 24.5389 12.1445 23.56 11.597Z" fill="#FBBC04"/>
<path d="M0.107308 2.39429C0.0372293 2.65855 0 2.93624 0 3.2229V25.5819C0 25.8686 0.0372293 26.1463 0.108403 26.4094L12.1663 14.0799L0.107308 2.39429Z" fill="#4285F4"/>
<path d="M11.8522 14.3999L17.8855 8.23124L4.77861 0.46022C4.30229 0.167967 3.74604 6.67572e-06 3.15147 6.67572e-06C1.69514 6.67572e-06 0.466575 1.01337 0.108516 2.38842C0.108516 2.38954 0.107422 2.39066 0.107422 2.39178L11.8522 14.3999Z" fill="#34A853"/>
</svg>
